<svg xmlns="http://www.w3.org/2000/svg" version="1.1" xmlns:xlink="http://www.w3.org/1999/xlink" xmlns:svgjs="http://svgjs.dev/svgjs" width="2000" height="1500" viewBox="0 0 2000 1500"><rect width="2000" height="1500" fill="#000000"></rect><g transform="matrix(0.44603033006244425,0,0,0.44603033006244425,552.580232658313,250)"><svg viewBox="0 0 321 360" data-background-color="#77d4fc" preserveAspectRatio="xMidYMid meet" height="2242" width="2000" xmlns="http://www.w3.org/2000/svg" xmlns:xlink="http://www.w3.org/1999/xlink"><g id="tight-bounds" transform="matrix(1,0,0,1,0.5000234999999975,0)"><svg viewBox="0 0 320 360" height="360" width="320"><g><svg></svg></g><g><svg viewBox="0 0 320 360" height="360" width="320"><g><path transform="translate(-74.99272,-51.79039) scale(4.65793,4.65793)" d="M20.6 59.9l0.8 1-0.4-1.3c-0.1-0.6-0.8 0.1-0.4 0.3M21.5 59.3c0.3 0.5 0.6 1 0.6 1.5 0 0.7 0.6 1 1.1 1.2-0.7-0.8-1.1-3-1.7-2.7M59.9 16.9c1.7 0 3.3-0.2 5.1 0.2 4.4 1.1 8.1 3.3 10.6 6.4l7 11.2c0.3 2.8 0.9 5.9 0.8 9.3 0.7 0 0.6-1 1.4-1.2-0.8 2-1.2 4.5-1.4 7.4-0.5-1.6 0-4 0.1-5.3-0.7 1.1-1.1 0.3-1.1-0.2 0.1-0.8-0.3-0.7-0.6-1-1.1-1-1.8-2.1-2.6-3.8 0.5-1.3 0.6-3.2-1-4.2-0.5-0.3-1.1-0.8-1.4-1.6-0.4-1.1-1.1-2.4-0.9-4.1 0.1-0.5-1.5 1.1-2.4 0.4-3.9-2.7-7.8-5.8-12.5-8.4-2.5 0-4.3-0.9-5.2-2-0.8-1-0.2-2.3 1-2.4 0.7 0 1.5-0.2 2.1 0.2 0.1-0.4 0.5-0.9 1-0.9M50 14.6l0.2 0.1c1 0.2 1.5 1.6 2.6 1.1 0 0.7 0.1 1.4-0.1 1.9-0.3 0.8-1.2 0.8-1.9 0.8-6.7-0.4-10.6 2.4-14.7 4.8-1.1 0.7-2.3 1.2-3.2 2.1-4.3 4-9 7.7-10.1 15.1l-0.9 8.2c-0.1 0.9-1.1 1.8-0.9 2.9l0.7 4.9c-0.7-0.7-1.1 0.2-0.9 0.6 0.1 0.3 0.5 1.3 1.1 0.4 0.8 1.5 1.6 4.4 2.7 5.7 3.4 4 7.8 7.6 11.4 11.2 0.9-0.2 1.6-0.2 1.8-0.8 0.3 0.6-0.3 1.2-0.8 1.3 1.6 1 3.4 1.9 5.8 2.1 3.1 0.2 6 0.7 8.7 1.4 1.4-0.4 2.8-0.6 4.3-0.7 0.5 0 0.8-0.8 1.4-1l0.1-1c0.6 0.9 0.5-0.3 0.1-0.9 0.7 0.6 0.9 1.1 1.2 1.5 0-0.3 0.8-1.4 0.8-0.1l0.2-1.3c0.3-0.2 0.4 1.1 0.7 0.2 0.3-0.9 0.9-0.2 1.5-0.5-0.2 0.4-0.1 1.2 0.6 0.7l0.8-0.7c0.5 1.2 1.3 0.7 1.7 0.5 4.4-2.8 8.8-6.1 13-9.4l-0.1 1.3 0.5-1.6c0.5 0.5 0.9 0.1 1.1-0.2 0.6-1 1.4-2 2.7-2.9-1.6 4.3-3.5 7.7-5.9 10.5l-1 1.2c0 0.7-0.2 1.6-1 1.7-0.4 0.1-1.2-0.2-1.8 0.4-0.3 0.4 0.7 1.2-0.1 0.6-0.7-0.5-1.4 0-2.2 0.2-0.6 0.2 0.4 0.8 0.6 1.2 0.2 0.4 0.4 0.8 0.3 1.3l-1.1-1.2c-1.3 0.7-2.1 2-3.2 3-0.5 0.4-0.3 1.1-0.3 1.7-0.7 0-1.5-0.2-1.9 0.2-0.3 0.4-0.2 1-0.2 1.6-1-0.1-1.1-1.6-2-1.3-0.9 0.2-1.9 0.3-2.7 0.8 0.6 1.2-1 0.5-0.8 0.7-1.5-0.9-2.8-1.6-4.4-1-3.4-1.1-7.6-0.6-10.7-0.2 0-0.5 0.1-1-0.1-1.1-0.2 0.5-0.8 0.3-0.7 0.3-1.9-1.3-3.8-2.1-5.8-3.2-1.8 0.2-3.5-0.7-4-1.2-1.4-1.3-3-0.6-4.3-0.9-2.8-0.7-3.8-3.6-4.1-5.6-0.2-1-1-1.4-1.3-1.3-1.3-4.2-3.3-8-4.9-11.9-0.4-1-0.3-2-0.3-3.1 0.5 0.2 1 0.1 0.9-0.6-0.5-3.3-1.7-5.8-3-8.2 0.7-3.4 0.8-7.4 2.4-10.4 1.4-2.7 4-4.1 5.8-6.4 0.6-0.8 0.6-1.9 1.2-2.6 2-2 4-4.1 6.2-5.9 1-0.8 2.2 0 3.7-0.3 0.5-1.8 2.5-3.4 4.4-2.9 0.8 0.2 2.4-1.9 2.9-2.1 0.8-0.3 0.4 0.8 0.4 1.5 1.9-1.5 4.5-2.3 6.9-3.2" fill="#ffffff" fill-rule="nonzero" stroke="none" stroke-width="1" stroke-linecap="butt" stroke-linejoin="miter" stroke-miterlimit="10" stroke-dasharray="" stroke-dashoffset="0" font-family="none" font-weight="none" font-size="none" text-anchor="none" style="mix-blend-mode: normal" data-fill-palette-color="tertiary"></path></g><g transform="matrix(1,0,0,1,64,100.01039073055935)"><svg viewBox="0 0 192 159.9792185388813" height="159.9792185388813" width="192"><g><svg viewBox="0 0 192 159.9792185388813" height="159.9792185388813" width="192"><g><svg viewBox="0 0 192 159.9792185388813" height="159.9792185388813" width="192"><g transform="matrix(1,0,0,1,0,95.62240980122591)"><svg viewBox="0 0 192 64.35680873765537" height="64.35680873765537" width="192"><g id="textblocktransform"><svg viewBox="0 0 192 64.35680873765537" height="64.35680873765537" width="192" id="textblock"><g><svg viewBox="0 0 192 45.78616352201258" height="45.78616352201258" width="192"><g transform="matrix(1,0,0,1,0,0)"><svg width="192" viewBox="3.9 -35 190.78 45.5" height="45.78616352201258" data-palette-color="#000000"><path d="M22.8 0L18.55-12.4Q17.65-12.25 16.55-12.25L16.55-12.25 6.7-12.25 6.7 0 3.9 0 3.9-35 16.2-35Q20.95-35 23.28-32.1 25.6-29.2 25.6-24.3L25.6-24.3Q25.6-20.55 24.78-17.65 23.95-14.75 21.2-13.25L21.2-13.25 25.65 0 22.8 0ZM16.6-15Q19.4-15 20.78-16.5 22.15-18 22.48-19.9 22.8-21.8 22.8-24.15L22.8-24.15Q22.8-28.25 21.1-30.3 19.4-32.35 16.4-32.35L16.4-32.35 6.7-32.35 6.7-15 16.6-15ZM46.7-1.75Q44.9-0.6 42.6 0 40.3 0.6 38 0.6L38 0.6Q34.3 0.6 32.12-1.23 29.95-3.05 29.95-6.7L29.95-6.7 29.95-16.95Q29.95-21 32.47-23.25 35-25.5 39.15-25.5L39.15-25.5Q43.3-25.5 45.62-23.28 47.95-21.05 47.95-17.1L47.95-17.1 47.95-10.6 32.75-9.75 32.75-6.7Q32.75-4.3 34.3-3.1 35.85-1.9 38.35-1.9L38.35-1.9Q41.85-1.9 45.6-3.9L45.6-3.9 46.7-1.75ZM45.15-17.45Q45.15-20.55 43.2-21.83 41.25-23.1 39.1-23.1L39.1-23.1Q36.35-23.1 34.55-21.6 32.75-20.1 32.75-16.9L32.75-16.9 32.75-12.5 45.15-13.1 45.15-17.45ZM68.8 0L68.8-17.15Q68.8-20.2 67.02-21.58 65.25-22.95 62.45-22.95L62.45-22.95Q60.75-22.95 59-22.48 57.25-22 55.9-21.25L55.9-21.25 55.9 0 53.1 0 53.1-25.05 55.9-25.05 55.7-23.35Q56.9-24.4 58.75-24.93 60.6-25.45 62.6-25.45L62.6-25.45Q65.35-25.45 67.3-24.55L67.3-24.55Q69.3-23.65 70.42-21.85 71.55-20.05 71.55-17.3L71.55-17.3 71.55 0 68.8 0ZM82.39 0.65Q79.59-0.15 78.34-1.9 77.09-3.65 77.09-6.6L77.09-6.6 77.09-35 79.89-35 79.89-25.05 85.89-25.05 84.69-22.4 79.89-22.4 79.89-6.6Q79.89-2.6 83.19-1.5L83.19-1.5 82.39 0.65ZM90.84 2.75L90.84 0 106.84 0 106.84 2.75 90.84 2.75ZM108.59 0L108.59-35 125.29-35 125.29-32.4 111.39-32.4 111.39-20.65 120.94-20.65 119.99-17.9 111.39-17.9 111.39-2.5 125.19-2.5 125.19 0 108.59 0ZM149.04 0Q143.64 0.55 141.24 0.55L141.24 0.55Q135.99 0.55 132.89-1.4 129.79-3.35 129.79-8.45L129.79-8.45 129.79-12.6Q129.79-17.55 133.24-19.25L133.24-19.25Q134.89-20.1 137.44-20.1L137.44-20.1Q139.79-20.1 142.19-19.33 144.59-18.55 146.24-17.3L146.24-17.3Q146.24-20.05 144.64-21.68 143.04-23.3 138.49-23.3L138.49-23.3 138.64-25.45Q143.44-25.45 145.71-23.93 147.99-22.4 148.51-20.3 149.04-18.2 149.04-14.9L149.04-14.9 149.04 0ZM146.24-15.15Q144.19-16.1 141.86-16.8 139.54-17.5 137.59-17.5L137.59-17.5Q132.54-17.5 132.54-12.45L132.54-12.45 132.54-8.1Q132.54-4.85 134.79-3.38 137.04-1.9 141.19-1.9L141.19-1.9Q143.34-1.9 146.24-2.3L146.24-2.3 146.24-15.15ZM155.28-6.35Q155.58-4.1 157.53-2.98 159.48-1.85 161.88-1.85L161.88-1.85Q164.13-1.85 165.98-2.88 167.83-3.9 167.83-6.2L167.83-6.2Q167.83-7.7 166.96-8.68 166.08-9.65 164.78-10.25 163.48-10.85 161.28-11.55L161.28-11.55Q158.83-12.35 157.28-13.05 155.73-13.75 154.58-15.03 153.43-16.3 153.23-18.25L153.23-18.25 153.18-18.85Q153.18-20.5 154.11-22.08 155.03-23.65 156.96-24.65 158.88-25.65 161.78-25.65L161.78-25.65Q163.38-25.65 164.61-25.33 165.83-25 166.53-24.65 167.23-24.3 167.38-24.2L167.38-24.2 166.43-21.9Q166.28-22 165.71-22.3 165.13-22.6 164.08-22.9 163.03-23.2 161.78-23.2L161.78-23.2Q159.38-23.2 157.68-22.08 155.98-20.95 155.98-18.95L155.98-18.95Q155.98-17.05 157.53-16.05 159.08-15.05 162.28-14.05L162.28-14.05Q164.98-13.15 166.63-12.35 168.28-11.55 169.46-10.08 170.63-8.6 170.63-6.25L170.63-6.25Q170.63-3.25 168.41-1.25 166.18 0.75 161.88 0.75L161.88 0.75Q159.03 0.75 156.96-0.23 154.88-1.2 153.81-2.8 152.73-4.4 152.63-6.35L152.63-6.35 155.28-6.35ZM186.98 8.35Q190.33 7.1 190.33 3.15L190.33 3.15 190.33-2.45Q189.38-0.85 187.48-0.13 185.58 0.6 183.38 0.6L183.38 0.6Q178.98 0.6 176.61-1.78 174.23-4.15 174.23-8.8L174.23-8.8 174.23-25.05 176.93-25.05 176.93-8.3Q176.93-5.1 178.68-3.53 180.43-1.95 183.38-1.95L183.38-1.95Q186.48-1.95 188.38-3.5 190.28-5.05 190.28-8.3L190.28-8.3 190.28-18.15Q190.28-20.55 190.43-21.73 190.58-22.9 191.36-23.93 192.13-24.95 193.93-25.5L193.93-25.5 194.68-23.6Q192.98-22.85 192.98-20.1L192.98-20.1 192.98 3.05Q192.98 6.1 191.78 7.85 190.58 9.6 187.73 10.5L187.73 10.5 186.98 8.35Z" opacity="1" transform="matrix(1,0,0,1,0,0)" fill="#ffffff" class="wordmark-text-0" data-fill-palette-color="primary" id="text-0"></path></svg></g></svg></g><g transform="matrix(1,0,0,1,0,52.467463647798745)"><svg viewBox="0 0 192 11.889345089856633" height="11.889345089856633" width="192"><g transform="matrix(1,0,0,1,0,0)"><svg width="192" viewBox="1.85 -35.5 742.76 46" height="11.889345089856633" data-palette-color="#000000"><path d="M4.7-8.9Q4.85-7.2 5.98-5.65 7.1-4.1 9.08-3.13 11.05-2.15 13.6-2.15L13.6-2.15Q17.45-2.15 20.03-3.88 22.6-5.6 22.6-9.35L22.6-9.35Q22.6-11.55 21.35-13.03 20.1-14.5 18.25-15.38 16.4-16.25 13.2-17.4L13.2-17.4Q9.75-18.6 7.68-19.63 5.6-20.65 4.17-22.4 2.75-24.15 2.75-26.9L2.75-26.9Q2.75-29.1 4-31.08 5.25-33.05 7.78-34.27 10.3-35.5 14-35.5L14-35.5Q16.45-35.5 18.05-35.15 19.65-34.8 21.3-34L21.3-34 20.45-31.35Q17.6-32.8 14.1-32.8L14.1-32.8Q10.25-32.8 7.95-31.2 5.65-29.6 5.65-26.75L5.65-26.75Q5.65-24.95 6.8-23.73 7.95-22.5 9.63-21.75 11.3-21 14.3-19.95L14.3-19.95Q17.95-18.7 20.2-17.63 22.45-16.55 24.03-14.58 25.6-12.6 25.6-9.6L25.6-9.6Q25.6-5 22.68-2.23 19.75 0.55 13.65 0.55L13.65 0.55Q9.95 0.55 7.33-0.83 4.7-2.2 3.33-4.38 1.95-6.55 1.85-8.9L1.85-8.9 4.7-8.9ZM33.65-32.15Q33-32.15 32.47-32.68 31.95-33.2 31.95-33.85L31.95-33.85Q31.95-34.5 32.45-35 32.95-35.5 33.65-35.5L33.65-35.5Q34.35-35.5 34.82-35.02 35.3-34.55 35.3-33.85L35.3-33.85Q35.3-33.15 34.8-32.65 34.3-32.15 33.65-32.15L33.65-32.15ZM32.2 0L32.2-25.05 35-25.05 35 0 32.2 0ZM71.65 0L71.65-17.15Q71.65-20.15 70.07-21.55 68.5-22.95 66-22.95L66-22.95Q64.05-22.95 61.65-22.1L61.65-22.1 59.8-21.2Q60.65-19.5 60.65-17.3L60.65-17.3 60.65 0 57.9 0 57.9-17.15Q57.9-20.2 56.32-21.58 54.75-22.95 52.2-22.95L52.2-22.95Q50.65-22.95 49-22.48 47.34-22 46-21.25L46-21.25 46 0 43.2 0 43.2-25.05 46-25.05 45.75-23.45Q49.05-25.4 52.5-25.4L52.5-25.4Q54.3-25.4 55.87-24.8 57.45-24.2 58.55-23.05L58.55-23.05Q59.25-23.45 60.65-24.15L60.65-24.15Q63.59-25.5 66.34-25.5L66.34-25.5Q69.9-25.5 72.15-23.33 74.4-21.15 74.4-17.3L74.4-17.3 74.4 0 71.65 0ZM79.94 10.5L79.94-25.05 82.74-25.05 82.49-22.5Q83.84-23.95 85.67-24.7 87.49-25.45 89.29-25.45L89.29-25.45Q93.94-25.45 96.37-22.75 98.79-20.05 98.79-15.75L98.79-15.75 98.79-8.8Q98.79-4.25 96.24-1.83 93.69 0.6 89.49 0.6L89.49 0.6Q87.34 0.6 85.69 0 84.04-0.6 82.74-2.1L82.74-2.1 82.74 9.4 79.94 10.5ZM95.99-15.95Q95.99-19.6 94.07-21.25 92.14-22.9 89.49-22.9L89.49-22.9Q86.79-22.9 84.84-21.28 82.89-19.65 82.74-16.2L82.74-16.2 82.74-8.3Q82.74-5.05 84.59-3.5 86.44-1.95 89.49-1.95L89.49-1.95Q92.24-1.95 94.12-3.58 95.99-5.2 95.99-8.3L95.99-8.3 95.99-15.95ZM104.34 0L104.34-35 107.14-35 107.14 0 104.34 0ZM116.74-32.15Q116.09-32.15 115.56-32.68 115.04-33.2 115.04-33.85L115.04-33.85Q115.04-34.5 115.54-35 116.04-35.5 116.74-35.5L116.74-35.5Q117.44-35.5 117.91-35.02 118.39-34.55 118.39-33.85L118.39-33.85Q118.39-33.15 117.89-32.65 117.39-32.15 116.74-32.15L116.74-32.15ZM115.29 0L115.29-25.05 118.09-25.05 118.09 0 115.29 0ZM126.29 0L126.29-27.45Q126.29-31.6 128.39-33.55 130.49-35.5 133.59-35.5L133.59-35.5Q134.54-35.5 135.44-35.35L135.44-35.35 134.99-32.9Q134.09-33 133.69-33L133.69-33Q129.09-33 129.09-27.45L129.09-27.45 129.09-25.05 134.79-25.05 133.59-22.4 129.09-22.4 129.09 0 126.29 0ZM151.68 8.35Q155.03 7.1 155.03 3.15L155.03 3.15 155.03-2.45Q154.08-0.85 152.18-0.13 150.28 0.6 148.08 0.6L148.08 0.6Q143.68 0.6 141.31-1.78 138.93-4.15 138.93-8.8L138.93-8.8 138.93-25.05 141.63-25.05 141.63-8.3Q141.63-5.1 143.38-3.53 145.13-1.95 148.08-1.95L148.08-1.95Q151.18-1.95 153.08-3.5 154.98-5.05 154.98-8.3L154.98-8.3 154.98-18.15Q154.98-20.55 155.13-21.73 155.28-22.9 156.06-23.93 156.83-24.95 158.63-25.5L158.63-25.5 159.38-23.6Q157.68-22.85 157.68-20.1L157.68-20.1 157.68 3.05Q157.68 6.1 156.48 7.85 155.28 9.6 152.43 10.5L152.43 10.5 151.68 8.35ZM194.28-1.5Q195.58-2 196.45-3.33 197.33-4.65 197.33-7.6L197.33-7.6 197.33-14.7Q195.98-13.5 193.73-12.88 191.48-12.25 189.43-12.25L189.43-12.25Q184.13-12.25 181.05-14.88 177.98-17.5 177.98-22.65L177.98-22.65 177.98-35 180.78-35 180.78-22.15Q180.78-18.65 183.18-16.82 185.58-15 189.43-15L189.43-15Q192.38-15 194.58-16.25 196.78-17.5 197.33-20L197.33-20 197.33-35 200.18-35 200.18-7.8Q200.18-4.15 198.8-2.08 197.43 0 194.93 0.35L194.93 0.35 194.28-1.5ZM223.63-9.2Q223.63-5 221.33-2.25 219.03 0.5 214.38 0.5L214.38 0.5Q209.73 0.5 207.35-2.27 204.98-5.05 204.98-9.2L204.98-9.2 204.98-15.8Q204.98-20.55 207.4-23.08 209.83-25.6 214.38-25.6L214.38-25.6Q218.73-25.6 221.18-22.98 223.63-20.35 223.63-15.8L223.63-15.8 223.63-9.2ZM220.83-15.8Q220.83-19.55 219.1-21.3 217.38-23.05 214.38-23.05L214.38-23.05Q211.28-23.05 209.53-21.3 207.78-19.55 207.78-15.8L207.78-15.8 207.78-8.7Q207.78-5.7 209.55-3.85 211.33-2 214.38-2L214.38-2Q217.48-2 219.15-3.83 220.83-5.65 220.83-8.7L220.83-8.7 220.83-15.8ZM242.97 0L243.17-2.55Q241.97-1.05 240.15-0.25 238.32 0.55 236.47 0.55L236.47 0.55Q227.07 0.55 227.07-8.6L227.07-8.6 227.07-25.05 229.87-25.05 229.87-8.25Q229.87-5.05 231.65-3.5 233.42-1.95 236.47-1.95L236.47-1.95Q239.47-1.95 241.2-3.48 242.92-5 242.92-8.25L242.92-8.25 242.92-25.05 245.72-25.05 245.72 0 242.97 0ZM250.67 0L250.67-25.05 253.47-25.05 253.32-23.3Q255.67-25.5 259.47-25.5L259.47-25.5Q260.82-25.5 263.17-25.05L263.17-25.05 262.42-22.5Q260.82-23 259.07-23L259.07-23Q256.77-23 255.12-22.15 253.47-21.3 253.47-19.6L253.47-19.6 253.47 0 250.67 0ZM300.77 0L300.77-17.9 284.87-17.9 284.87 0 282.06 0 282.06-35 284.87-35 284.87-20.65 300.77-20.65 300.77-35 303.56-35 303.56 0 300.77 0ZM330.11-9.2Q330.11-5 327.81-2.25 325.51 0.5 320.86 0.5L320.86 0.5Q316.21 0.5 313.84-2.27 311.46-5.05 311.46-9.2L311.46-9.2 311.46-15.8Q311.46-20.55 313.89-23.08 316.31-25.6 320.86-25.6L320.86-25.6Q325.21-25.6 327.66-22.98 330.11-20.35 330.11-15.8L330.11-15.8 330.11-9.2ZM327.31-15.8Q327.31-19.55 325.59-21.3 323.86-23.05 320.86-23.05L320.86-23.05Q317.76-23.05 316.01-21.3 314.26-19.55 314.26-15.8L314.26-15.8 314.26-8.7Q314.26-5.7 316.04-3.85 317.81-2 320.86-2L320.86-2Q323.96-2 325.64-3.83 327.31-5.65 327.31-8.7L327.31-8.7 327.31-15.8ZM364.11 0L364.11-17.15Q364.11-20.15 362.53-21.55 360.96-22.95 358.46-22.95L358.46-22.95Q356.51-22.95 354.11-22.1L354.11-22.1 352.26-21.2Q353.11-19.5 353.11-17.3L353.11-17.3 353.11 0 350.36 0 350.36-17.15Q350.36-20.2 348.78-21.58 347.21-22.95 344.66-22.95L344.66-22.95Q343.11-22.95 341.46-22.48 339.81-22 338.46-21.25L338.46-21.25 338.46 0 335.66 0 335.66-25.05 338.46-25.05 338.21-23.45Q341.51-25.4 344.96-25.4L344.96-25.4Q346.76-25.4 348.33-24.8 349.91-24.2 351.01-23.05L351.01-23.05Q351.71-23.45 353.11-24.15L353.11-24.15Q356.06-25.5 358.81-25.5L358.81-25.5Q362.36-25.5 364.61-23.33 366.86-21.15 366.86-17.3L366.86-17.3 366.86 0 364.11 0ZM387.01-1.75Q385.21-0.6 382.91 0 380.61 0.6 378.31 0.6L378.31 0.6Q374.61 0.6 372.43-1.23 370.26-3.05 370.26-6.7L370.26-6.7 370.26-16.95Q370.26-21 372.78-23.25 375.31-25.5 379.46-25.5L379.46-25.5Q383.61-25.5 385.93-23.28 388.26-21.05 388.26-17.1L388.26-17.1 388.26-10.6 373.06-9.75 373.06-6.7Q373.06-4.3 374.61-3.1 376.16-1.9 378.66-1.9L378.66-1.9Q382.16-1.9 385.91-3.9L385.91-3.9 387.01-1.75ZM385.46-17.45Q385.46-20.55 383.51-21.83 381.56-23.1 379.41-23.1L379.41-23.1Q376.66-23.1 374.86-21.6 373.06-20.1 373.06-16.9L373.06-16.9 373.06-12.5 385.46-13.1 385.46-17.45ZM426.9 0L422.65-12.4Q421.75-12.25 420.65-12.25L420.65-12.25 410.8-12.25 410.8 0 408 0 408-35 420.3-35Q425.05-35 427.38-32.1 429.7-29.2 429.7-24.3L429.7-24.3Q429.7-20.55 428.88-17.65 428.05-14.75 425.3-13.25L425.3-13.25 429.75 0 426.9 0ZM420.7-15Q423.5-15 424.88-16.5 426.25-18 426.58-19.9 426.9-21.8 426.9-24.15L426.9-24.15Q426.9-28.25 425.2-30.3 423.5-32.35 420.5-32.35L420.5-32.35 410.8-32.35 410.8-15 420.7-15ZM450.8-1.75Q449-0.6 446.7 0 444.4 0.6 442.1 0.6L442.1 0.6Q438.4 0.6 436.22-1.23 434.05-3.05 434.05-6.7L434.05-6.7 434.05-16.95Q434.05-21 436.57-23.25 439.1-25.5 443.25-25.5L443.25-25.5Q447.4-25.5 449.72-23.28 452.05-21.05 452.05-17.1L452.05-17.1 452.05-10.6 436.85-9.75 436.85-6.7Q436.85-4.3 438.4-3.1 439.95-1.9 442.45-1.9L442.45-1.9Q445.95-1.9 449.7-3.9L449.7-3.9 450.8-1.75ZM449.25-17.45Q449.25-20.55 447.3-21.83 445.35-23.1 443.2-23.1L443.2-23.1Q440.45-23.1 438.65-21.6 436.85-20.1 436.85-16.9L436.85-16.9 436.85-12.5 449.25-13.1 449.25-17.45ZM472.9 0L472.9-17.15Q472.9-20.2 471.12-21.58 469.35-22.95 466.55-22.95L466.55-22.95Q464.85-22.95 463.1-22.48 461.35-22 460-21.25L460-21.25 460 0 457.2 0 457.2-25.05 460-25.05 459.8-23.35Q461-24.4 462.85-24.93 464.7-25.45 466.7-25.45L466.7-25.45Q469.45-25.45 471.4-24.55L471.4-24.55Q473.4-23.65 474.52-21.85 475.65-20.05 475.65-17.3L475.65-17.3 475.65 0 472.9 0ZM486.49 0.65Q483.69-0.15 482.44-1.9 481.19-3.65 481.19-6.6L481.19-6.6 481.19-35 483.99-35 483.99-25.05 489.99-25.05 488.79-22.4 483.99-22.4 483.99-6.6Q483.99-2.6 487.29-1.5L487.29-1.5 486.49 0.65ZM512.24 0Q506.84 0.55 504.44 0.55L504.44 0.55Q499.19 0.55 496.09-1.4 492.99-3.35 492.99-8.45L492.99-8.45 492.99-12.6Q492.99-17.55 496.44-19.25L496.44-19.25Q498.09-20.1 500.64-20.1L500.64-20.1Q502.99-20.1 505.39-19.33 507.79-18.55 509.44-17.3L509.44-17.3Q509.44-20.05 507.84-21.68 506.24-23.3 501.69-23.3L501.69-23.3 501.84-25.45Q506.64-25.45 508.92-23.93 511.19-22.4 511.72-20.3 512.24-18.2 512.24-14.9L512.24-14.9 512.24 0ZM509.44-15.15Q507.39-16.1 505.07-16.8 502.74-17.5 500.79-17.5L500.79-17.5Q495.74-17.5 495.74-12.45L495.74-12.45 495.74-8.1Q495.74-4.85 497.99-3.38 500.24-1.9 504.39-1.9L504.39-1.9Q506.54-1.9 509.44-2.3L509.44-2.3 509.44-15.15ZM517.94 0L517.94-35 520.74-35 520.74 0 517.94 0ZM542.53 0L542.53-35 559.23-35 559.23-32.4 545.33-32.4 545.33-20.65 554.88-20.65 553.93-17.9 545.33-17.9 545.33-2.5 559.13-2.5 559.13 0 542.53 0ZM581.38 0L575.23-9.85 569.08 0 565.78 0 573.58-12.45 565.78-25.05 568.93-25.05 575.23-15.05 581.53-25.05 584.68-25.05 576.83-12.45 584.68 0 581.38 0ZM590.23 10.5L590.23-25.05 593.03-25.05 592.78-22.5Q594.13-23.95 595.95-24.7 597.78-25.45 599.58-25.45L599.58-25.45Q604.23-25.45 606.65-22.75 609.08-20.05 609.08-15.75L609.08-15.75 609.08-8.8Q609.08-4.25 606.53-1.83 603.98 0.6 599.78 0.6L599.78 0.6Q597.63 0.6 595.98 0 594.33-0.6 593.03-2.1L593.03-2.1 593.03 9.4 590.23 10.5ZM606.28-15.95Q606.28-19.6 604.35-21.25 602.43-22.9 599.78-22.9L599.78-22.9Q597.08-22.9 595.13-21.28 593.18-19.65 593.03-16.2L593.03-16.2 593.03-8.3Q593.03-5.05 594.88-3.5 596.73-1.95 599.78-1.95L599.78-1.95Q602.53-1.95 604.4-3.58 606.28-5.2 606.28-8.3L606.28-8.3 606.28-15.95ZM629.23-1.75Q627.43-0.6 625.13 0 622.83 0.6 620.53 0.6L620.53 0.6Q616.83 0.6 614.65-1.23 612.48-3.05 612.48-6.7L612.48-6.7 612.48-16.95Q612.48-21 615-23.25 617.53-25.5 621.68-25.5L621.68-25.5Q625.83-25.5 628.15-23.28 630.48-21.05 630.48-17.1L630.48-17.1 630.48-10.6 615.28-9.75 615.28-6.7Q615.28-4.3 616.83-3.1 618.38-1.9 620.88-1.9L620.88-1.9Q624.38-1.9 628.13-3.9L628.13-3.9 629.23-1.75ZM627.68-17.45Q627.68-20.55 625.73-21.83 623.78-23.1 621.63-23.1L621.63-23.1Q618.88-23.1 617.08-21.6 615.28-20.1 615.28-16.9L615.28-16.9 615.28-12.5 627.68-13.1 627.68-17.45ZM635.47 0L635.47-25.05 638.27-25.05 638.12-23.3Q640.47-25.5 644.27-25.5L644.27-25.5Q645.62-25.5 647.97-25.05L647.97-25.05 647.22-22.5Q645.62-23 643.87-23L643.87-23Q641.57-23 639.92-22.15 638.27-21.3 638.27-19.6L638.27-19.6 638.27 0 635.47 0ZM653.37-32.15Q652.72-32.15 652.2-32.68 651.67-33.2 651.67-33.85L651.67-33.85Q651.67-34.5 652.17-35 652.67-35.5 653.37-35.5L653.37-35.5Q654.07-35.5 654.55-35.02 655.02-34.55 655.02-33.85L655.02-33.85Q655.02-33.15 654.52-32.65 654.02-32.15 653.37-32.15L653.37-32.15ZM651.92 0L651.92-25.05 654.72-25.05 654.72 0 651.92 0ZM677.52-1.75Q675.72-0.6 673.42 0 671.12 0.6 668.82 0.6L668.82 0.6Q665.12 0.6 662.94-1.23 660.77-3.05 660.77-6.7L660.77-6.7 660.77-16.95Q660.77-21 663.29-23.25 665.82-25.5 669.97-25.5L669.97-25.5Q674.12-25.5 676.44-23.28 678.77-21.05 678.77-17.1L678.77-17.1 678.77-10.6 663.57-9.75 663.57-6.7Q663.57-4.3 665.12-3.1 666.67-1.9 669.17-1.9L669.17-1.9Q672.67-1.9 676.42-3.9L676.42-3.9 677.52-1.75ZM675.97-17.45Q675.97-20.55 674.02-21.83 672.07-23.1 669.92-23.1L669.92-23.1Q667.17-23.1 665.37-21.6 663.57-20.1 663.57-16.9L663.57-16.9 663.57-12.5 675.97-13.1 675.97-17.45ZM699.62 0L699.62-17.15Q699.62-20.2 697.84-21.58 696.07-22.95 693.27-22.95L693.27-22.95Q691.57-22.95 689.82-22.48 688.07-22 686.72-21.25L686.72-21.25 686.72 0 683.92 0 683.92-25.05 686.72-25.05 686.52-23.35Q687.72-24.4 689.57-24.93 691.42-25.45 693.42-25.45L693.42-25.45Q696.17-25.45 698.12-24.55L698.12-24.55Q700.12-23.65 701.24-21.85 702.37-20.05 702.37-17.3L702.37-17.3 702.37 0 699.62 0ZM723.61-0.3Q720.51 0.5 717.61 0.5L717.61 0.5Q714.91 0.5 713.11-0.1L713.11-0.1Q710.16-1.1 708.84-3.18 707.51-5.25 707.51-9L707.51-9 707.51-15.4Q707.51-20.35 710.11-22.93 712.71-25.5 716.81-25.5L716.81-25.5Q720.06-25.5 723.51-23.9L723.51-23.9 722.71-21.85Q719.86-23 717.21-23L717.21-23Q714.11-23 712.21-21.23 710.31-19.45 710.31-15.7L710.31-15.7 710.31-8.45Q710.31-5 712.39-3.45 714.46-1.9 717.91-1.9L717.91-1.9Q720.16-1.9 723.01-2.55L723.01-2.55 723.61-0.3ZM743.36-1.75Q741.56-0.6 739.26 0 736.96 0.6 734.66 0.6L734.66 0.6Q730.96 0.6 728.79-1.23 726.61-3.05 726.61-6.7L726.61-6.7 726.61-16.95Q726.61-21 729.14-23.25 731.66-25.5 735.81-25.5L735.81-25.5Q739.96-25.5 742.29-23.28 744.61-21.05 744.61-17.1L744.61-17.1 744.61-10.6 729.41-9.75 729.41-6.7Q729.41-4.3 730.96-3.1 732.51-1.9 735.01-1.9L735.01-1.9Q738.51-1.9 742.26-3.9L742.26-3.9 743.36-1.75ZM741.81-17.45Q741.81-20.55 739.86-21.83 737.91-23.1 735.76-23.1L735.76-23.1Q733.01-23.1 731.21-21.6 729.41-20.1 729.41-16.9L729.41-16.9 729.41-12.5 741.81-13.1 741.81-17.45Z" opacity="1" transform="matrix(1,0,0,1,0,0)" fill="#ffffff" class="slogan-text-1" data-fill-palette-color="secondary" id="text-1"></path></svg></g></svg></g></svg></g></svg></g><g transform="matrix(1,0,0,1,51.091835321667915,0)"><svg viewBox="0 0 89.81632935666417 88.94110967543975" height="88.94110967543975" width="89.81632935666417"><g><svg xmlns="http://www.w3.org/2000/svg" xmlns:xlink="http://www.w3.org/1999/xlink" version="1.1" x="0" y="0" viewBox="16.961997707760844 14.438124961843712 74.38472064200789 73.65987503815629" enable-background="new 0 0 100 100" xml:space="preserve" height="88.94110967543975" width="89.81632935666417" class="icon-icon-0" data-fill-palette-color="accent" id="icon-0"><g fill="#000000" data-fill-palette-color="accent"><path d="M69.5 80.732H28.488A1.9 1.9 0 0 1 26.586 78.84V51.412C26.586 51.367 26.566 51.329 26.561 51.286 26.567 51.241 26.587 51.202 26.587 51.155A1 1 0 0 0 25.587 50.155H19.027A0.6 0.6 0 0 1 18.967 49.891C18.958 49.538 19.171 49.127 19.566 48.733 21.114 47.186 52.568 17.108 52.886 16.803A1.37 1.37 0 0 1 54.766 16.803L88.101 48.747C88.338 48.975 88.469 49.274 88.469 49.59 88.469 49.789 88.417 49.982 88.319 50.154H82.066A1 1 0 0 0 81.066 51.154V57.624A1 1 0 1 0 83.066 57.624V52.154H88.793A1 1 0 0 0 89.484 51.877 3.146 3.146 0 0 0 89.485 47.303L56.151 15.36C54.868 14.131 52.784 14.131 51.503 15.359 50.206 16.599 19.716 45.756 18.152 47.319 17.06 48.41 16.691 49.745 17.164 50.887 17.483 51.657 18.148 52.155 18.859 52.155H24.586V78.841A3.9 3.9 0 0 0 28.488 82.733H69.5A1 1 0 1 0 69.5 80.732" fill="#ffffff" data-fill-palette-color="accent"></path><path d="M37.811 66.638A2.34 2.34 0 0 0 40.151 68.971H67.503A2.34 2.34 0 0 0 69.841 66.638V51.547A0.998 0.998 0 0 0 68.921 50.155H38.837A1 1 0 0 0 37.837 51.155C37.837 51.231 37.864 51.298 37.88 51.369A1 1 0 0 0 37.811 51.713z" fill="#ffffff" data-fill-palette-color="accent"></path><path d="M88.491 74.879C87.877 74.511 86.443 74.066 84.224 73.556V67.177C85.597 67.651 86.152 68.442 86.136 68.814A0.5 0.5 0 0 0 86.635 69.336H89.711A0.5 0.5 0 0 0 90.21 68.857C90.327 66.158 87.991 64.042 84.224 63.388V62.187C84.224 61.91 84.001 61.687 83.724 61.687H80.408C80.131 61.687 79.908 61.91 79.908 62.187V63.316C75.437 63.892 72.785 66.288 72.785 69.783 72.785 72.008 73.64 73.721 75.328 74.877 75.951 75.299 77.49 75.84 79.908 76.484V82.653C78.161 82.187 77.279 81.336 77.296 80.957A0.496 0.496 0 0 0 76.797 80.436H73.721A0.5 0.5 0 0 0 73.222 80.914C73.081 84.147 76.506 85.843 79.909 86.388V87.598A0.5 0.5 0 0 0 80.409 88.098H83.725A0.5 0.5 0 0 0 84.225 87.598V86.52C88.655 86.09 91.176 83.791 91.34 80.009 91.436 77.766 90.504 76.088 88.491 74.879M79.908 72.447C77.868 71.728 77.006 70.959 77.05 69.926 77.127 68.18 77.965 67.294 79.908 66.964zM84.225 82.793V77.537C86.225 78.039 87.074 78.544 87.074 79.865 87.073 81.433 86.115 82.416 84.225 82.793" fill="#ffffff" data-fill-palette-color="accent"></path></g></svg></g></svg></g><g></g></svg></g></svg></g></svg></g></svg></g><defs></defs></svg><rect width="320" height="360" fill="none" stroke="none" visibility="hidden"></rect></g></svg></g></svg>