<svg xmlns="http://www.w3.org/2000/svg" version="1.1" xmlns:xlink="http://www.w3.org/1999/xlink" xmlns:svgjs="http://svgjs.dev/svgjs" width="2000" height="1500" viewBox="0 0 2000 1500"><rect width="2000" height="1500" fill="#ffffff"></rect><g transform="matrix(0.75,0,0,0.75,249.090909090909,278.98548387096776)"><svg viewBox="0 0 396 248" data-background-color="#f9f9f9" preserveAspectRatio="xMidYMid meet" height="1252" width="2000" xmlns="http://www.w3.org/2000/svg" xmlns:xlink="http://www.w3.org/1999/xlink"><g id="tight-bounds" transform="matrix(1,0,0,1,0.2400000000000091,0.4000000000000057)"><svg viewBox="0 0 395.52 247.2" height="247.2" width="395.52"><g><svg></svg></g><g><svg viewBox="0 0 395.52 247.2" height="247.2" width="395.52"><g transform="matrix(1,0,0,1,75.54432,97.63438197952217)"><svg viewBox="0 0 244.43135999999998 51.931236040955625" height="51.931236040955625" width="244.43135999999998"><g><svg viewBox="0 0 244.43135999999998 51.931236040955625" height="51.931236040955625" width="244.43135999999998"><g><svg viewBox="0 0 244.43135999999998 51.931236040955625" height="51.931236040955625" width="244.43135999999998"><g><svg viewBox="0 0 244.43135999999998 51.931236040955625" height="51.931236040955625" width="244.43135999999998"><g id="textblocktransform"><svg viewBox="0 0 244.43135999999998 51.931236040955625" height="51.931236040955625" width="244.43135999999998" id="textblock"><g><svg viewBox="0 0 244.43135999999998 51.931236040955625" height="51.931236040955625" width="244.43135999999998"><g transform="matrix(1,0,0,1,0,0)"><svg width="244.43135999999998" viewBox="4.6 -37.1 175.78 37.35" height="51.931236040955625" data-palette-color="#030303"><path d="M4.6-35L18.8-35Q25.55-35 29.23-31.88 32.9-28.75 32.9-23.1L32.9-23.1Q32.9-17.2 29.23-13.93 25.55-10.65 18.8-10.65L18.8-10.65 10.5-10.65 10.5 0 4.6 0 4.6-35ZM10.5-15.7L18.8-15.7Q22.85-15.7 25.08-17.48 27.3-19.25 27.3-22.95L27.3-22.95Q27.3-26.5 25.08-28.23 22.85-29.95 18.8-29.95L18.8-29.95 10.5-29.95 10.5-15.7ZM26.8 0L19-12.95 24.8-12.95 33.5 0 26.8 0ZM42.55-15.2L58.8-15.2Q58.7-17.45 57.77-19.03 56.85-20.6 55.2-21.48 53.55-22.35 51.4-22.35L51.4-22.35Q49-22.35 47.22-21.25 45.45-20.15 44.45-18.18 43.45-16.2 43.45-13.55L43.45-13.55Q43.45-10.7 44.52-8.6 45.6-6.5 47.52-5.35 49.45-4.2 51.95-4.2L51.95-4.2Q56.4-4.2 59.45-7.35L59.45-7.35 62.5-4.3Q60.55-2.15 57.75-0.98 54.95 0.2 51.5 0.2L51.5 0.2Q47.4 0.2 44.35-1.5 41.3-3.2 39.6-6.23 37.9-9.25 37.9-13.25L37.9-13.25Q37.9-17.25 39.6-20.28 41.3-23.3 44.35-25 47.4-26.7 51.35-26.75L51.35-26.75Q56.05-26.75 58.9-24.83 61.75-22.9 62.95-19.4 64.15-15.9 63.8-11.1L63.8-11.1 42.55-11.1 42.55-15.2ZM86.45-11.85L78.5-11.85Q75.7-11.85 74.34-11 73-10.15 73-8.2L73-8.2Q73-6.35 74.37-5.25 75.75-4.15 78.15-4.15L78.15-4.15Q80.3-4.15 82-4.9 83.7-5.65 84.7-6.93 85.7-8.2 85.75-9.8L85.75-9.8 86.84-4.95Q85.59-2.35 83.05-1.05 80.5 0.25 76.95 0.25L76.95 0.25Q74.09 0.25 72-0.85 69.89-1.95 68.75-3.83 67.59-5.7 67.59-8L67.59-8Q67.59-11.6 70.22-13.75 72.84-15.9 77.65-15.95L77.65-15.95 86.45-15.95 86.45-11.85ZM85.75 0L85.7-16.85Q85.7-19.45 84.09-20.9 82.5-22.35 79.34-22.35L79.34-22.35Q77.45-22.35 75.47-21.65 73.5-20.95 71.5-19.6L71.5-19.6 69.14-23.3Q71-24.45 72.64-25.2 74.3-25.95 76.17-26.35 78.05-26.75 80.59-26.75L80.59-26.75Q85.75-26.75 88.52-24.28 91.3-21.8 91.34-17.45L91.34-17.45 91.4 0 85.75 0ZM99.34 0L99.34-37.1 105.09-37.1 105.09 0 99.34 0ZM120.59-32.85L120.59-8.4Q120.59-6.25 121.34-5.48 122.09-4.7 123.44-4.7L123.44-4.7Q124.34-4.7 125.31-5 126.29-5.3 127.44-5.9L127.44-5.9 128.89-1.75Q127.34-0.8 125.69-0.28 124.04 0.25 122.34 0.25L122.34 0.25Q120.34 0.25 118.64-0.53 116.94-1.3 115.92-3 114.89-4.7 114.89-7.4L114.89-7.4 114.89-32.85 120.59-32.85ZM111.14-21.5L111.14-25.6 128.44-25.6 128.44-21.5 111.14-21.5ZM145.59-26.75L145.59-26.75Q149.69-26.75 152.81-25.05 155.94-23.35 157.69-20.33 159.44-17.3 159.44-13.3L159.44-13.3Q159.44-9.3 157.69-6.25 155.94-3.2 152.81-1.5 149.69 0.2 145.59 0.2L145.59 0.2Q141.49 0.2 138.34-1.5 135.19-3.2 133.44-6.25 131.69-9.3 131.69-13.3L131.69-13.3Q131.69-17.3 133.44-20.33 135.19-23.35 138.34-25.05 141.49-26.75 145.59-26.75ZM145.59-22.1L145.59-22.1Q143.19-22.1 141.34-20.98 139.49-19.85 138.46-17.85 137.44-15.85 137.44-13.25L137.44-13.25Q137.44-10.6 138.46-8.6 139.49-6.6 141.34-5.48 143.19-4.35 145.59-4.35L145.59-4.35Q147.99-4.35 149.81-5.48 151.64-6.6 152.66-8.6 153.69-10.6 153.69-13.25L153.69-13.25Q153.69-15.85 152.66-17.85 151.64-19.85 149.81-20.98 147.99-22.1 145.59-22.1ZM180.38-26.75L180.38-21.55Q177.53-21.7 175.46-20.58 173.38-19.45 172.26-17.45 171.13-15.45 171.13-12.85L171.13-12.85 169.53-13.05Q169.53-17.5 170.84-20.55 172.13-23.6 174.59-25.18 177.03-26.75 180.38-26.75L180.38-26.75ZM165.44 0L165.44-26.55 171.19-26.55 171.19 0 165.44 0Z" opacity="1" transform="matrix(1,0,0,1,0,0)" fill="#000000" class="wordmark-text-0" data-fill-palette-color="primary" id="text-0"></path></svg></g></svg></g></svg></g></svg></g></svg></g></svg></g></svg></g><g><path d="M245.816 0c68.262 0 123.6 55.338 123.6 123.6 0 68.262-55.338 123.6-123.6 123.6-57.161 0-105.26-38.803-119.392-91.505h2.426c14.07 51.394 61.107 89.163 116.966 89.163 66.969 0 121.258-54.289 121.258-121.258 0-66.969-54.289-121.258-121.258-121.258-55.858 0-102.895 37.769-116.966 89.163l-2.426 0c14.132-52.702 62.231-91.505 119.392-91.505z" fill="#000000" stroke="transparent" data-fill-palette-color="tertiary"></path></g></svg></g><defs></defs></svg><rect width="395.52" height="247.2" fill="none" stroke="none" visibility="hidden"></rect></g></svg></g></svg>